# xmcd
#
# Track frame offsets: 
#        150
#        37822
#        97417
#        117614
#        138431
#        185132
#        206813
#        234732
#        244960
#        301275
#
# Disc length: 4106 seconds
#
# Revision: 0
# Processed by: cddbd v1.5.2PL0 Copyright (c) Steve Scherf et al.
# Submitted via: ExactAudioCopy v1.0b1
#
DISCID=9a10080a
DTITLE=Jimi Hendrix  - Drinking Wine, Sipping Time-ATM044  
DYEAR=1900
DGENRE=
TTITLE0=Drinking Wine
TTITLE1=Juma Jam
TTITLE2=Summer Jam
TTITLE3=Jimi's Tune
TTITLE4=Villanova Junction
TTITLE5=Here Comes The Sun
TTITLE6=Drinking Wine
TTITLE7=Message To The Universe
TTITLE8=Jam with Mitch
TTITLE9=Stepping Stone
EXTD=
EXTT0=
EXTT1=
EXTT2=
EXTT3=
EXTT4=
EXTT5=
EXTT6=
EXTT7=
EXTT8=
EXTT9=
PLAYORDER=
